Coordinates
version=1
nRows=8
nColumns=36
inDegrees=yes

Units are S.I. units (second, meters, Newtons, ...)
If the header above contains a line with 'inDegrees', this indicates whether rotational values are in degrees (yes) or radians (no).

endheader
time	pelvis_tilt	pelvis_list	pelvis_rotation	pelvis_tx	pelvis_ty	pelvis_tz	hip_flexion_r	hip_adduction_r	hip_rotation_r	knee_angle_r	knee_angle_r_beta	ankle_angle_r	subtalar_angle_r	mtp_angle_r	hip_flexion_l	hip_adduction_l	hip_rotation_l	knee_angle_l	knee_angle_l_beta	ankle_angle_l	subtalar_angle_l	mtp_angle_l	lumbar_extension	lumbar_bending	lumbar_rotation	arm_flex_r	arm_add_r	arm_rot_r	elbow_flex_r	pro_sup_r	arm_flex_l	arm_add_l	arm_rot_l	elbow_flex_l	pro_sup_l
      7.68333330	    -14.78036715	     -4.88542003	      4.99490869	      0.24543057	      0.85941929	      0.04086291	     36.10421783	     -7.60774120	      0.94171435	     27.92409760	      0.48736744	     -2.33344563	    -17.73767583	     -7.49999987	     37.57882991	     -5.44238199	      9.10513634	     27.52127269	      0.48033682	      3.33932612	     -5.04391842	     -7.49999987	    -13.70369683	      4.36873082	     -8.82498429	    -32.19479437	    -11.55268925	     -0.30566644	     75.24289882	     87.93073467	    -35.97795760	     -5.51503060	    -29.43410560	     50.87266835	     77.55998147
      7.70000000	    -15.41339653	     -4.34362261	      6.01443834	      0.25999130	      0.81862690	      0.04643073	     41.59697424	     -8.28814833	      2.71647092	     39.91900944	      0.69671815	      9.33304052	    -19.76940639	     -7.49999987	     44.70736290	     -4.08960275	      9.58684718	     42.26978858	      0.73774698	     14.06281494	     -6.07969431	     -7.49999987	    -14.20773250	      3.96472269	     -7.93451192	    -30.20692759	     -8.71236580	     -1.94410551	     70.51123527	     89.29600505	    -31.48181843	     -5.34743467	    -30.91687418	     53.10426273	     84.72314905
      7.71666670	    -14.78053850	     -4.45329072	      6.71044627	      0.28985036	      0.80616036	      0.04593375	     43.94713382	     -7.98245825	      3.12288946	     49.63705195	      0.86632999	     18.04355294	    -21.16616593	     -7.49999987	     48.45842428	     -2.99910494	     11.55188837	     55.05826159	      0.96094795	     22.23396074	     -8.05284586	     -7.49999987	    -14.58784667	      4.44370559	     -6.27299517	    -27.82107434	     -6.46507153	     -3.84421944	     62.91616086	     88.35033941	    -25.38155099	     -4.25314966	    -30.37003059	     52.18043016	     85.13398201
      7.73333330	    -13.25227482	     -4.27321503	      6.85242319	      0.28289445	      0.78603569	      0.06278813	     47.09016149	     -7.24638437	      3.57457462	     59.95665672	      1.04644107	     24.95302864	    -21.04637494	     -7.49999987	     51.10179718	     -2.59843233	     12.73835806	     65.22655270	      1.13841810	     28.23356747	     -9.13273326	     -7.49999987	    -17.00832433	      4.18330578	     -4.52499022	    -22.67827802	     -4.31865499	     -5.54515066	     53.60666421	     87.68119276	    -18.73151607	     -4.34713645	    -28.93709148	     52.00138118	     86.00710363
      7.75000000	    -11.08434697	     -3.96798982	      6.88852903	      0.28264662	      0.77467909	      0.06312577	     48.45792288	     -6.68742715	      3.88405798	     67.36707869	      1.17577733	     28.97188626	    -20.45701300	     -7.49999987	     51.19896407	     -1.90187011	     14.11054882	     71.50481748	      1.24799450	     30.61222967	    -11.30762097	     -7.49999987	    -20.29374476	      3.84537690	     -1.22284504	    -16.97082462	     -2.31361639	     -9.43163485	     43.88408034	     87.62512171	     -8.94731449	     -4.45674191	    -23.91780557	     46.74555507	     90.45365702
      7.76666670	     -9.06408002	     -3.50484866	      7.12058670	      0.27668374	      0.75937938	      0.06631272	     49.37100255	     -6.70075831	      3.92190672	     72.62983437	      1.26762974	     31.82526173	    -19.42737505	     -7.49999987	     53.02382664	     -0.87561481	     14.36225827	     77.58090308	      1.35404220	     30.53694710	    -13.69416768	     -7.49999987	    -24.57345168	      2.86595644	      0.92706391	    -11.02182404	     -1.77684080	    -11.39672668	     37.07671615	     88.95824929	     -0.23121094	     -4.05718642	    -19.34086405	     43.06880758	     93.17798581
      7.78333330	     -7.38335734	     -3.07181905	      6.80186689	      0.28149803	      0.74414401	      0.06994814	     49.28088421	     -6.53872674	      4.30387230	     75.98392729	      1.32616971	     34.12942504	    -18.97411887	     -7.49999987	     54.17871775	      0.09203576	     14.92182093	     82.45758737	      1.43915639	     29.35238030	    -16.29096033	     -7.49999987	    -28.01256105	      2.06662021	      1.72451091	     -5.35244246	     -2.43087724	    -11.21119367	     32.52375394	     89.04846899	      5.60064267	     -3.07360204	    -15.93342530	     40.99530948	     93.55022326
      7.80000000	     -6.22874049	     -2.92715397	      6.19218797	      0.29981408	      0.74082774	      0.07649559	     48.08749183	     -5.69885120	      4.60252406	     77.54027752	      1.35333315	     35.30114603	    -19.32896401	     -7.49999987	     53.47236314	     -0.16542392	     15.11614919	     84.68174068	      1.47797519	     27.67978832	    -18.47012519	     -7.49999987	    -30.28318658	      1.90179580	      1.39216110	     -1.34524247	     -3.71226594	    -11.79548793	     33.12526175	     89.18967378	     10.10696331	     -3.59048422	    -13.27918518	     43.12042498	     94.19694937
